Kung.Fu.Panda.2.2011.R6.Line.XviD.Feel-Free 

Genre:Animation | Action | Adventure
Language:English
IMDb:http://www.imdb.com/title/tt1302011/
Source:R6 LiNE 720p N0NBiDA Thanks!

Format : AVI
Format/Info : Audio Video Interleave
File size : 961 MiB
Duration : 1h 25mn
Overall bit rate : 1 575 Kbps

Video
ID : 0
Format : MPEG-4 Visual
Format profile : Advanced Simple@L5
Format settings, BVOP : Yes
Format settings, QPel : No
Format settings, GMC : No warppoints
Format settings, Matrix : Default (H.263)
Muxing mode : Packed bitstream
Codec ID : XVID
Codec ID/Hint : XviD
Duration : 1h 25mn
Bit rate : 1 246 Kbps
Width : 720 pixels
Height : 304 pixels
Display aspect ratio : 2.35:1
Frame rate : 29.970 fps
Color space : YUV
Chroma subsampling : 4:2:0
Bit depth : 8 bits
Scan type : Progressive
Bits/(Pixel*Frame) : 0.190
Stream size : 761 MiB (79%)
Writing library : XviD 1.2.1 (UTC 2008-12-04)

Audio
ID : 1
Format : MPEG Audio
Format version : Version 1
Format profile : Layer 3
Mode : Joint stereo
Codec ID : 55
Codec ID/Hint : MP3
Duration : 1h 23mn
Bit rate mode : Constant
Bit rate : 320 Kbps
Channel(s) : 2 channels
Sampling rate : 48.0 KHz
Stream size : 192 MiB (20%)
Alignment : Aligned on interleaves
Interleave, duration : 24 ms (0.73 video frame)
Interleave, preload duration : 504 ms


Plot:

Po joins forces with a group of new kung-fu masters to take on an old enemy 
with a deadly new weapon.


Screens:

 
http://www.pix2links.com/images/23161480742191412885.png
    	 
http://www.pix2links.com/images/72883587617684910591.png
    	 
http://www.pix2links.com/images/33891040287733330795.png


ENJOY!